<?xml version="1.0" standalone="no"?>
<!DOCTYPE svg PUBLIC "-//W3C//DTD SVG 20010904//EN"
 "http://www.w3.org/TR/2001/REC-SVG-20010904/DTD/svg10.dtd">
<svg version="1.0" xmlns="http://www.w3.org/2000/svg"
 width="512.000000pt" height="512.000000pt" viewBox="0 0 512.000000 512.000000"
 preserveAspectRatio="xMidYMid meet">
<metadata>
Created by potrace 1.11, written by Peter Selinger 2001-2013
</metadata>
<g transform="translate(0.000000,512.000000) scale(0.100000,-0.100000)"
fill="#000000" stroke="none">
<path d="M2320 5109 c-491 -47 -981 -246 -1366 -557 -599 -482 -954 -1224
-954 -1992 0 -577 204 -1155 568 -1606 482 -599 1224 -954 1992 -954 577 0
1155 204 1606 568 599 482 954 1224 954 1992 0 577 -204 1155 -568 1606 -433
538 -1071 879 -1767 944 -125 11 -340 11 -465 -1z m468 -976 c6 -27 160 -748
342 -1603 182 -855 333 -1563 336 -1572 5 -17 -10 -18 -209 -18 l-215 0 -15
83 c-8 45 -41 227 -73 405 l-58 322 -331 0 -331 0 -68 -357 c-37 -197 -72
-379 -78 -405 l-10 -48 -209 0 c-137 0 -209 4 -209 10 0 6 151 723 336 1593
184 870 338 1594 341 1610 l6 27 217 0 218 0 10 -47z"/>
<path d="M2556 3500 c-9 -39 -256 -1394 -256 -1407 0 -10 60 -13 265 -13 201
0 265 3 265 12 0 13 -259 1407 -264 1423 -2 6 -6 -1 -10 -15z"/>
</g>
</svg>
